<?xml version="1.0" encoding="UTF-8"?>
<svg id="Layer_1" xmlns="http://www.w3.org/2000/svg" version="1.1" viewBox="0 0 794.63 412.73">
  <!-- Generator: Adobe Illustrator 30.0.0, SVG Export Plug-In . SVG Version: 2.1.1 Build 123)  -->
  <defs>
    <style>
      .st0 {
        fill: #fff;
      }
    </style>
  </defs>
  <path class="st0" d="M178.61,11.78h29.58c22.31,0,34.77,11.94,34.77,35.29v38.4c0,23.61-12.45,35.54-34.77,35.54h-6.49v72.39h-23.09V11.78ZM210.27,86.76c6.23,0,9.6-3.89,9.6-11.67v-17.64c0-7.52-3.37-11.42-9.6-11.42h-8.56v40.73h8.56Z"/>
  <path class="st0" d="M250.48,11.78h23.09v181.62h-23.09V11.78Z"/>
  <path class="st0" d="M298.47,46.03h-18.94V11.78h60.71v34.25h-18.68v147.37h-23.09V46.03Z"/>
  <path class="st0" d="M344.65,160.71v-34.51h22.57v22.83c0,7.52,3.37,11.42,9.34,11.42s9.34-3.89,9.34-11.42v-9.08c0-7.78-1.82-11.16-7.52-15.83l-12.2-9.86c-13.75-11.16-21.01-19.46-21.01-41.77v-28.54c0-19.72,12.45-33.47,31.65-33.47s31.65,13.75,31.65,33.47v33.21h-22.57v-21.53c0-7.01-3.37-10.9-8.82-10.9s-8.82,3.89-8.82,10.9v8.3c0,7.26,2.33,11.16,7.52,15.31l11.68,9.34c14.27,11.42,21.53,19.2,21.53,41.25v30.88c0,19.98-12.71,33.99-32.17,33.99s-32.17-14.01-32.17-33.99Z"/>
  <path class="st0" d="M432.08,46.03h-18.94V11.78h60.71v34.25h-18.68v147.37h-23.09V46.03Z"/>
  <path class="st0" d="M478.77,160.71V44.47c0-19.98,12.71-33.99,32.17-33.99s32.17,14.01,32.17,33.99v116.23c0,19.98-12.71,33.99-32.17,33.99s-32.17-14.01-32.17-33.99ZM510.95,160.45c5.71,0,9.08-3.89,9.08-11.16V55.89c0-7.26-3.37-11.16-9.08-11.16s-9.08,3.89-9.08,11.16v93.4c0,7.26,3.37,11.16,9.08,11.16Z"/>
  <path class="st0" d="M551.42,11.78h29.58c22.31,0,34.77,11.94,34.77,35.29v38.4c0,23.61-12.45,35.54-34.77,35.54h-6.49v72.39h-23.09V11.78ZM583.07,86.76c6.23,0,9.6-3.89,9.6-11.67v-17.64c0-7.52-3.37-11.42-9.6-11.42h-8.56v40.73h8.56Z"/>
  <path class="st0" d="M28.01,219.33h23.09v73.68h16.35v-73.68h23.09v181.62h-23.09v-73.94h-16.35v73.94h-23.09v-181.62Z"/>
  <path class="st0" d="M143.98,400.95l-2.85-39.96h-19.46l-3.11,39.96h-23.09l16.86-181.62h37.62l16.86,181.62h-22.83ZM138.01,327l-6.23-73.43h-.52l-6.75,73.43h13.49Z"/>
  <path class="st0" d="M171.48,219.33h41.25l8.82,141.66h.52l9.34-141.66h41.25v181.62h-22.57v-147.37h-.52l-10.9,147.37h-32.43l-11.68-147.37h-.52v147.37h-22.57v-181.62Z"/>
  <path class="st0" d="M281.48,219.33h30.62c19.46,0,31.91,14.01,31.91,34.51v29.84c0,13.23-4.41,20.5-12.71,24.65v.52c9.34,3.11,14.53,10.12,14.53,24.39v32.69c0,21.02-13.23,35.03-32.69,35.03h-31.65v-181.62ZM312.09,291.46c5.71,0,8.82-3.37,8.82-10.12v-17.9c0-6.75-3.11-9.86-8.82-9.86h-7.52v37.88h7.52ZM313.13,366.7c6.49,0,9.6-3.63,9.6-10.64v-19.72c0-7.01-3.11-10.64-9.6-10.64h-8.56v40.99h8.56Z"/>
  <path class="st0" d="M352.82,368.26v-148.93h23.09v137.51c0,7.26,3.37,11.16,9.08,11.16s9.08-3.89,9.08-11.16v-137.51h23.09v148.93c0,19.98-12.71,33.99-32.17,33.99s-32.17-14.01-32.17-33.99Z"/>
  <path class="st0" d="M425.72,219.33h28.8c22.31,0,34.77,11.94,34.77,35.29v34.77c0,13.75-4.41,21.27-14.53,23.87v.52c9.08,2.85,14.79,10.64,14.79,24.65v62.53h-23.09v-57.6c0-8.04-3.63-11.94-10.12-11.94h-7.52v69.53h-23.09v-181.62ZM456.6,297.17c6.23,0,9.6-3.89,9.6-11.16v-21.02c0-7.52-3.11-11.42-9.34-11.42h-8.04v43.59h7.78Z"/>
  <path class="st0" d="M497.33,375.52v-123.5c0-19.72,12.71-33.99,31.91-33.99s32.17,14.27,32.17,33.99v32.69h-22.83v-21.28c0-7.26-3.37-11.16-9.08-11.16s-9.08,3.89-9.08,11.16v92.88c0,7.52,3.37,11.68,9.34,11.68s9.6-4.15,9.6-11.68v-21.79h-12.19v-34.25h35.28v100.67h-20.5l-1.3-13.49h-.52c-2.07,8.04-9.6,14.79-20.5,14.79-13.49,0-22.31-9.6-22.31-26.72Z"/>
  <path class="st0" d="M570.75,219.33h52.67v34.25h-29.58v38.92h26.98v34.25h-26.98v39.96h31.13v34.25h-54.23v-181.62Z"/>
  <path class="st0" d="M631.71,219.33h28.8c22.31,0,34.77,11.94,34.77,35.29v34.77c0,13.75-4.41,21.27-14.53,23.87v.52c9.08,2.85,14.79,10.64,14.79,24.65v62.53h-23.09v-57.6c0-8.04-3.63-11.94-10.12-11.94h-7.52v69.53h-23.09v-181.62ZM662.59,297.17c6.23,0,9.6-3.89,9.6-11.16v-21.02c0-7.52-3.11-11.42-9.34-11.42h-8.04v43.59h7.78Z"/>
  <path class="st0" d="M702.28,368.26v-34.51h22.57v22.83c0,7.52,3.37,11.42,9.34,11.42s9.34-3.89,9.34-11.42v-9.08c0-7.78-1.82-11.16-7.52-15.83l-12.2-9.86c-13.75-11.16-21.01-19.46-21.01-41.77v-28.54c0-19.72,12.45-33.47,31.65-33.47s31.65,13.75,31.65,33.47v33.21h-22.57v-21.53c0-7.01-3.37-10.9-8.82-10.9s-8.82,3.89-8.82,10.9v8.3c0,7.26,2.33,11.16,7.52,15.31l11.68,9.34c14.27,11.42,21.53,19.2,21.53,41.25v30.88c0,19.98-12.71,33.99-32.17,33.99s-32.17-14.01-32.17-33.99Z"/>
</svg>